# xmcd
#
# Track frame offsets: 
#        150
#        14865
#        31337
#        53217
#        76752
#        109560
#        147075
#
# Disc length: 4440 seconds
#
# Revision: 0
# Processed by: cddbd v1.5.2PL0 Copyright (c) Steve Scherf et al.
# Submitted via: ExactAudioCopy v1.0b3
#
DISCID=52115607
DTITLE=Milk Inc. - Time - Breathe Without You
DYEAR=1900
DGENRE=
TTITLE0=Time (Radio Edit)
TTITLE1=Breathe Without You (Radio Edit)
TTITLE2=Time (Expanded)
TTITLE3=Breathe Without You (O² Expanded)
TTITLE4=Time (Kevin Marshall's Rewinded Mix)
TTITLE5=Breathe Without You (DJ Wout Remix)
TTITLE6=Data
EXTD=
EXTT0=
EXTT1=
EXTT2=
EXTT3=
EXTT4=
EXTT5=
EXTT6=
PLAYORDER=
